<svg xmlns="http://www.w3.org/2000/svg" width="2854.801" height="645" viewBox="0 0 2854.801 645">
  <defs>
    <style>
      .cls-1 {
        fill: #225333;
      }

      .cls-2 {
        fill: #80c60f;
      }

      .cls-3 {
        fill: #609030;
      }

      .cls-4 {
        fill: #103110;
      }
    </style>
  </defs>
  <g id="Group_197" data-name="Group 197" transform="translate(-19065.5 -8174)">
    <g id="Group_196" data-name="Group 196" transform="translate(18971.68 8023.534)">
      <path id="lightbulb-cfl-sharp-solid" class="cls-1" d="M0,360V260L500,160V260Z" transform="translate(93.821 290.466)"/>
      <path id="lightbulb-cfl-sharp-solid-2" data-name="lightbulb-cfl-sharp-solid" class="cls-2" d="M250,100l-39.375,7.812L0,150V50L191.406,11.719,250,0V100Z" transform="translate(343.821 150.466)"/>
      <path id="lightbulb-cfl-sharp-solid-3" data-name="lightbulb-cfl-sharp-solid" class="cls-3" d="M500,64V164L0,264V164Z" transform="translate(93.821 236.466)"/>
      <path id="lightbulb-cfl-sharp-solid-4" data-name="lightbulb-cfl-sharp-solid" class="cls-4" d="M176,401V301l225-45V356L176,401Z" transform="translate(-82.179 394.465)"/>
    </g>
    <path id="Path_180" data-name="Path 180" d="M204.4-101.15a115.639,115.639,0,0,1-1.4,18.9H61.25q1.75,21,14.7,32.9t31.85,11.9q27.3,0,38.85-23.45H199.5a88.323,88.323,0,0,1-32.2,46.025Q143.5,3.15,108.85,3.15q-28,0-50.225-12.425A87.453,87.453,0,0,1,23.975-44.45Q11.55-67.2,11.55-96.95q0-30.1,12.25-52.85a85.474,85.474,0,0,1,34.3-35q22.05-12.25,50.75-12.25,27.65,0,49.525,11.9a83.751,83.751,0,0,1,33.95,33.775Q204.4-129.5,204.4-101.15Zm-50.75-14q-.35-18.9-13.65-30.275T107.45-156.8q-18.2,0-30.625,11.025T61.6-115.15Zm183.4-81.55q34.65,0,56,21.875T414.4-113.75V0h-49V-107.1q0-23.1-11.55-35.525t-31.5-12.425q-20.3,0-32.025,12.425T278.6-107.1V0h-49V-193.9h49v24.15a67.692,67.692,0,0,1,25.025-19.775A77.414,77.414,0,0,1,337.05-196.7ZM630.7-101.15a115.645,115.645,0,0,1-1.4,18.9H487.55q1.75,21,14.7,32.9t31.85,11.9q27.3,0,38.85-23.45H625.8a88.323,88.323,0,0,1-32.2,46.025Q569.8,3.15,535.15,3.15q-28,0-50.225-12.425a87.453,87.453,0,0,1-34.65-35.175Q437.85-67.2,437.85-96.95q0-30.1,12.25-52.85a85.474,85.474,0,0,1,34.3-35q22.05-12.25,50.75-12.25,27.65,0,49.525,11.9a83.751,83.751,0,0,1,33.95,33.775Q630.7-129.5,630.7-101.15Zm-50.75-14q-.35-18.9-13.65-30.275T533.75-156.8q-18.2,0-30.625,11.025T487.9-115.15ZM704.9-163.8a68.888,68.888,0,0,1,24.675-24.15Q744.8-196.7,764.4-196.7v51.45H751.45q-23.1,0-34.825,10.85T704.9-96.6V0h-49V-193.9h49Zm157.85-33.25q21.7,0,38.15,8.575t25.9,22.225V-193.9h49.35V1.4q0,26.95-10.85,48.125t-32.55,33.6q-21.7,12.425-52.5,12.425-41.3,0-67.725-19.25T782.6,23.8h48.65q3.85,13.3,16.625,21.175T878.85,52.85q21.35,0,34.65-12.775T926.8,1.4V-28.7q-9.45,13.65-26.075,22.75T862.75,3.15a83.281,83.281,0,0,1-44.8-12.6q-20.3-12.6-32.025-35.525T774.2-97.65q0-29.4,11.725-52.15t31.85-35A84.8,84.8,0,0,1,862.75-197.05ZM926.8-96.95q0-17.85-7-30.625a49.354,49.354,0,0,0-18.9-19.6A50.514,50.514,0,0,0,875.35-154a49.626,49.626,0,0,0-25.2,6.65,50.076,50.076,0,0,0-18.725,19.425Q824.25-115.15,824.25-97.65t7.175,30.625a51.659,51.659,0,0,0,18.9,20.125,48.012,48.012,0,0,0,25.025,7,50.514,50.514,0,0,0,25.55-6.825,49.354,49.354,0,0,0,18.9-19.6Q926.8-79.1,926.8-96.95Zm272.3-96.95L1079.05,91.7H1026.9l42-96.6-77.7-189h54.95L1096.2-58.45l50.75-135.45ZM1361.85,3.15q-23.8,0-42.7-8.575T1289.225-28.7a58.985,58.985,0,0,1-12.075-32.55h49.35q1.4,11.2,11.025,18.55t23.975,7.35q14,0,21.875-5.6t7.875-14.35q0-9.45-9.625-14.175T1351-79.8q-21.7-5.25-35.525-10.85a61.673,61.673,0,0,1-23.8-17.15q-9.975-11.55-9.975-31.15a50.262,50.262,0,0,1,9.275-29.4q9.275-13.3,26.6-21t40.775-7.7q34.65,0,55.3,17.325T1436.4-133h-46.9a25.388,25.388,0,0,0-9.625-18.375q-8.575-6.825-22.925-6.825-13.3,0-20.475,4.9a15.621,15.621,0,0,0-7.175,13.65q0,9.8,9.8,14.875t30.45,10.325a258.464,258.464,0,0,1,34.65,10.85,61.219,61.219,0,0,1,23.625,17.325Q1437.8-74.55,1438.15-55.3a51.363,51.363,0,0,1-9.275,30.1q-9.275,13.3-26.6,20.825T1361.85,3.15Zm93.45-100.8q0-29.4,11.725-52.15t31.85-35q20.125-12.25,44.975-12.25,21.7,0,37.975,8.75a77.057,77.057,0,0,1,26.075,22.05V-193.9h49.35V0H1607.9V-28.35q-9.45,13.65-26.075,22.575T1543.5,3.15a82.4,82.4,0,0,1-44.625-12.6q-20.125-12.6-31.85-35.525T1455.3-97.65Zm152.6.7q0-17.85-7-30.625a49.354,49.354,0,0,0-18.9-19.6A50.515,50.515,0,0,0,1556.45-154a49.626,49.626,0,0,0-25.2,6.65,50.076,50.076,0,0,0-18.725,19.425q-7.175,12.775-7.175,30.275t7.175,30.625a51.658,51.658,0,0,0,18.9,20.125,48.011,48.011,0,0,0,25.025,7A50.515,50.515,0,0,0,1582-46.725a49.354,49.354,0,0,0,18.9-19.6Q1607.9-79.1,1607.9-96.95Zm135.8-68.6q9.45-14,26.075-22.75t37.975-8.75q24.85,0,44.975,12.25t31.85,34.825Q1896.3-127.4,1896.3-97.65t-11.725,52.675Q1872.85-22.05,1852.725-9.45a83.018,83.018,0,0,1-44.975,12.6q-21.7,0-37.975-8.575A73.764,73.764,0,0,1,1743.7-27.65V0h-49V-259h49Zm102.55,67.9q0-17.5-7.175-30.275a49.677,49.677,0,0,0-18.9-19.425A50.578,50.578,0,0,0,1794.8-154a48.94,48.94,0,0,0-25.025,6.825,50.657,50.657,0,0,0-18.9,19.775q-7.175,12.95-7.175,30.45t7.175,30.45a50.657,50.657,0,0,0,18.9,19.775A48.94,48.94,0,0,0,1794.8-39.9a48.628,48.628,0,0,0,25.375-7,51.963,51.963,0,0,0,18.9-19.95Q1846.25-79.8,1846.25-97.65Zm62.65,0q0-29.4,11.725-52.15t31.85-35q20.125-12.25,44.975-12.25,21.7,0,37.975,8.75a77.058,77.058,0,0,1,26.075,22.05V-193.9h49.35V0H2061.5V-28.35q-9.45,13.65-26.075,22.575T1997.1,3.15a82.4,82.4,0,0,1-44.625-12.6q-20.125-12.6-31.85-35.525T1908.9-97.65Zm152.6.7q0-17.85-7-30.625a49.355,49.355,0,0,0-18.9-19.6A50.515,50.515,0,0,0,2010.05-154a49.626,49.626,0,0,0-25.2,6.65,50.076,50.076,0,0,0-18.725,19.425q-7.175,12.775-7.175,30.275t7.175,30.625a51.658,51.658,0,0,0,18.9,20.125,48.011,48.011,0,0,0,25.025,7,50.515,50.515,0,0,0,25.55-6.825,49.355,49.355,0,0,0,18.9-19.6Q2061.5-79.1,2061.5-96.95ZM2197.3-259V0h-49V-259Z" transform="translate(19723 8619)"/>
  </g>
</svg>
